<svg xmlns="http://www.w3.org/2000/svg" viewBox="0 0 1200 900" role="img" aria-labelledby="title desc">
  <title>Présentation de la thérapeute</title>
  <desc>Parcours • Transmission • Cabinet</desc>
  <defs>
    <linearGradient id="bg" x1="0" y1="0" x2="1" y2="1">
      <stop offset="0%" stop-color="#F2E9D8"/>
      <stop offset="100%" stop-color="#FFFDF9"/>
    </linearGradient>
    <linearGradient id="accent" x1="0" y1="0" x2="1" y2="1">
      <stop offset="0%" stop-color="#A3B18A" stop-opacity="0.94"/>
      <stop offset="100%" stop-color="#2F3E46" stop-opacity="0.92"/>
    </linearGradient>
  </defs>
  <rect width="1200" height="900" rx="48" fill="url(#bg)"/>
  <circle cx="280" cy="250" r="180" fill="#A3B18A" opacity="0.16"/>
  <circle cx="900" cy="640" r="220" fill="#2F3E46" opacity="0.14"/>
  <rect x="110" y="120" width="980" height="660" rx="42" fill="white" opacity="0.58" stroke="rgba(47,62,70,0.08)"/>
  <path d="M210 610 C330 420, 520 380, 640 490 S910 700, 1010 520" fill="none" stroke="url(#accent)" stroke-width="24" stroke-linecap="round" opacity="0.85"/>
  <path d="M230 320 C340 180, 520 210, 600 310 S850 470, 970 360" fill="none" stroke="#A3B18A" stroke-width="14" stroke-linecap="round" opacity="0.5"/>
  <g fill="#2F3E46" opacity="0.18">
    <circle cx="380" cy="500" r="18"/>
    <circle cx="460" cy="452" r="12"/>
    <circle cx="530" cy="430" r="10"/>
    <circle cx="680" cy="520" r="14"/>
    <circle cx="770" cy="565" r="10"/>
    <circle cx="850" cy="595" r="12"/>
  </g>
  <text x="180" y="260" fill="#2F3E46" font-size="62" font-family="Georgia, 'Times New Roman', serif" font-weight="700">Présentation du thérapeute</text>
  <text x="180" y="330" fill="#8C6A4A" font-size="30" font-family="Georgia, 'Times New Roman', serif">Parcours • Transmission • Cabinet</text>
  <text x="180" y="700" fill="#2F3E46" font-size="22" font-family="Georgia, 'Times New Roman', serif">La Voie du Toucher</text>
</svg>